<svg width="246" height="51" viewBox="0 0 246 51" fill="none" xmlns="http://www.w3.org/2000/svg">
<path fill-rule="evenodd" clip-rule="evenodd" d="M192.867 18.2262C196.258 18.2262 199.135 19.5164 201.633 22.1075C204.127 24.7374 205.336 27.7775 205.336 31.3469C205.336 34.9829 204.138 37.9746 201.683 40.5122C199.25 43.0452 196.337 44.2774 192.784 44.2774C189.251 44.2774 186.37 43.0548 184.005 40.5631C181.595 38.0326 180.422 35.0415 180.422 31.4271C180.422 27.7881 181.643 24.7374 184.13 22.1075C186.596 19.4952 189.461 18.2262 192.867 18.2262ZM206.607 17.269C202.866 13.4125 198.232 11.4416 192.867 11.4416C187.48 11.4416 182.842 13.4125 179.088 17.269C175.344 21.1382 173.452 25.8565 173.452 31.302C173.452 36.6435 175.336 41.2943 179.051 45.1503C182.782 48.9745 187.438 50.9338 192.892 50.9338C198.343 50.9338 202.982 48.9745 206.682 45.1503C210.382 41.2786 212.268 36.6183 212.268 31.2349C212.268 25.8222 210.373 21.1382 206.607 17.269Z" fill="black"/>
<path fill-rule="evenodd" clip-rule="evenodd" d="M31.5755 31.2691C31.5755 34.8794 30.3958 37.8251 27.9549 40.3349C25.52 42.8457 22.6647 44.0744 19.1646 44.0744C17.6225 44.0744 16.2382 43.8236 14.8629 43.3246C14.8085 43.321 14.7727 43.3125 14.7389 43.2862L14.5675 43.2201C13.0794 42.6424 11.6744 41.6726 10.4489 40.3879C8.82359 38.6617 7.75536 36.6711 7.25679 34.4383C7.02893 33.4317 6.92861 32.4155 6.92861 31.3432C6.92861 27.7319 8.10824 24.7291 10.5653 22.1078C13.0264 19.5198 15.8565 18.2725 19.219 18.2725C22.5976 18.2725 25.4121 19.5198 27.8798 22.124C30.3832 24.7377 31.5755 27.7158 31.5755 31.2691ZM35.0589 0C33.3913 0 31.9616 1.2443 31.7302 2.89682L31.7161 16.2087C28.7867 13.6202 25.3824 12.0939 21.5551 11.6741H21.4512C21.2052 11.6372 20.9486 11.6372 20.7152 11.6074C20.4571 11.5792 20.2035 11.5792 19.9601 11.5328C19.4106 11.5202 18.857 11.5202 18.1967 11.5535L18.0429 11.5792C17.7853 11.5792 17.5146 11.5989 17.2565 11.6372C16.958 11.6529 16.6173 11.6897 16.2598 11.7326L16.0471 11.781C15.8102 11.8073 15.5737 11.8411 15.3877 11.8809C15.0671 11.9238 14.7727 12.0192 14.4395 12.0727C11.4253 12.8472 8.66579 14.3483 6.2798 16.6296L6.18452 16.674C5.97683 16.9031 5.78577 17.0908 5.54429 17.3365L5.32097 17.5691C5.19141 17.727 5.03614 17.8941 4.8965 18.0565C4.49774 18.5001 4.09294 18.9961 3.69115 19.5622C3.55353 19.7237 3.44111 19.8816 3.33323 20.0527L3.23291 20.1894C1.06823 23.4016 0 27.1335 0 31.1853C0 31.543 0.00403295 31.8468 0.00403295 32.2005C0.0539407 32.8615 0.0912454 33.4317 0.166359 34.0064L0.278777 34.7678C0.324652 34.9964 0.381618 35.2411 0.456731 35.5318L0.573687 36.1368C1.40397 39.3883 3.0721 42.3265 5.52766 44.8883C6.51724 45.904 7.589 46.836 8.7152 47.5767L9.26065 47.9405C9.3393 47.9889 9.41794 48.0217 9.47591 48.0661L9.55153 48.1015C9.99566 48.3961 10.4489 48.6252 10.8648 48.8402C11.1763 48.9658 11.4757 49.1288 11.7404 49.2322C14.0321 50.1814 16.5593 50.6698 19.2523 50.6698H19.3597C19.6757 50.6698 19.9832 50.6698 20.2741 50.6466C20.4158 50.6466 20.5781 50.6395 20.7238 50.6168H20.8488L21.2763 50.5754C21.3761 50.5507 21.4916 50.5477 21.5551 50.5381C25.4121 50.1233 28.8325 48.6252 31.7161 46.0957V47.6342L31.7302 47.8093C31.9445 49.3024 33.1417 50.4765 34.6309 50.6668H35.3457H35.5025C37.1913 50.4337 38.4294 48.9744 38.4294 47.2901V3.38273C38.4294 1.51829 36.9367 0 35.0589 0Z" fill="black"/>
<path fill-rule="evenodd" clip-rule="evenodd" d="M50.537 27.8769C50.8732 26.5897 51.3758 25.3858 52.0997 24.2636L52.199 24.1001C52.6598 23.4017 53.1896 22.7569 53.782 22.1029C56.2476 19.4953 59.103 18.2262 62.4952 18.2262C65.8985 18.2262 68.7709 19.5164 71.2638 22.1075C72.4197 23.3266 73.3176 24.6662 73.9583 26.1179C74.1993 26.6891 74.3939 27.2669 74.5527 27.8769H50.537ZM81.8805 30.4356C81.8805 29.9533 81.8336 29.4472 81.7994 28.9385C81.4843 26.0513 80.6031 23.377 79.1487 21.0004C78.3623 19.6835 77.412 18.4432 76.2727 17.269C73.491 14.3985 70.192 12.5481 66.4767 11.8155L66.1687 11.7787C65.8985 11.711 65.6162 11.6742 65.3611 11.6369C64.9558 11.5788 64.5434 11.5203 64.1608 11.5077C63.9082 11.482 63.6491 11.4633 63.388 11.4633C62.7906 11.4416 62.1539 11.4416 61.4925 11.4633C58.0388 11.6369 54.8724 12.6264 52.0997 14.4701C51.701 14.7194 51.3189 15.0115 50.9317 15.3022C50.3449 15.7588 49.8892 16.1539 49.4813 16.5409C49.2444 16.7624 49.0276 16.9991 48.7408 17.269C45.0007 21.1387 43.1022 25.8565 43.1022 31.302C43.1022 33.8567 43.5454 36.2903 44.4195 38.5312C45.3209 40.9063 46.7677 43.132 48.6959 45.1145C49.136 45.558 49.5938 45.995 50.1327 46.4789C50.8989 47.1227 51.6753 47.6964 52.4531 48.1884C52.9396 48.4785 53.4215 48.749 54.1238 49.1022C55.5535 49.7607 57.0618 50.2713 58.6341 50.5806C58.9522 50.6467 59.2774 50.6922 59.6313 50.7416C59.9388 50.7845 60.2876 50.8254 60.5946 50.8536C60.9027 50.8879 61.2097 50.896 61.5212 50.9091L61.6588 50.9117C61.9457 50.9339 62.2486 50.9339 62.5284 50.9339H62.6353C62.9342 50.9339 63.2342 50.9339 63.5407 50.9117C63.7449 50.9091 63.9611 50.896 64.186 50.8879L64.4728 50.8536C69.0986 50.4338 73.1013 48.5048 76.3181 45.1503C77.0622 44.3773 77.7397 43.574 78.3139 42.75C78.5382 42.4589 78.754 42.1435 78.9491 41.8236L79.0413 41.6319C79.2067 41.2115 79.2823 40.8028 79.2823 40.3956C79.2823 38.4732 77.7241 36.9478 75.8241 36.9478C74.7009 36.9478 73.6422 37.5079 72.9682 38.4616C72.5024 39.1846 71.9544 39.888 71.3349 40.5122C68.903 43.0452 65.9902 44.2774 62.4362 44.2774C58.9119 44.2774 56.0435 43.0548 53.6373 40.5631C53.2421 40.1453 52.8428 39.6564 52.4814 39.1811L52.3498 38.9651C52.0584 38.5529 51.8003 38.12 51.5134 37.5664C50.9514 36.5184 50.5581 35.3498 50.3449 34.1378H78.9703L79.2324 34.0924C80.658 33.78 81.7343 32.5968 81.9037 31.0941V31.0023C81.9037 30.7904 81.9037 30.582 81.8805 30.4356Z" fill="black"/>
<path fill-rule="evenodd" clip-rule="evenodd" d="M168.793 25.2535V47.2806C168.793 49.148 167.272 50.6699 165.389 50.6699C163.653 50.6699 162.176 49.3862 161.998 47.6227V47.497V26.689V25.3398C161.998 23.2488 161.308 21.5301 159.898 20.0366C158.592 18.708 157.151 17.9895 155.45 17.8729C155.306 17.8437 155.127 17.8437 154.943 17.8437C153.015 17.8437 151.412 18.5728 150.039 20.0366C148.697 21.4585 148.019 23.0535 147.935 24.9669V25.1944V25.2701L147.944 25.4825L147.935 25.5406V47.2806C147.935 49.148 146.432 50.6699 144.557 50.6699C142.791 50.6699 141.336 49.3862 141.153 47.6227L141.149 47.497L141.174 25.3271C141.153 25.1621 141.153 25.0365 141.153 24.924C141.099 23.8548 140.206 21.7542 140.206 21.7542C140.206 21.7542 139.506 20.523 139.038 20.0366C137.642 18.5728 136.02 17.8437 134.1 17.8437C132.192 17.8437 130.587 18.5728 129.196 20.0366C127.77 21.5301 127.08 23.277 127.08 25.3271V47.713C126.856 49.4129 125.408 50.6699 123.69 50.6699C121.831 50.6699 120.297 49.148 120.297 47.2806V14.5568C120.297 12.6737 121.831 11.1468 123.69 11.1468C125.084 11.1468 126.323 12.0187 126.851 13.2424C127.08 13.0854 127.339 12.9346 127.607 12.7549C129.552 11.7029 131.739 11.1468 134.108 11.1468C137.579 11.1468 140.601 12.2932 143.124 14.52C143.419 14.7692 143.68 15.0473 143.926 15.3187C144.155 15.5337 144.357 15.7592 144.557 15.9711C144.728 15.7804 144.944 15.5463 145.168 15.3187C145.426 15.0473 145.699 14.7692 145.971 14.52C148.506 12.2932 151.515 11.1468 154.951 11.1468C155.369 11.1468 155.738 11.1665 156.117 11.1912C159.084 11.4248 161.747 12.5395 163.98 14.5568C164.238 14.7864 164.498 15.0513 164.778 15.3187C167.446 18.0652 168.793 21.401 168.793 25.2535Z" fill="black"/>
<path fill-rule="evenodd" clip-rule="evenodd" d="M115.645 39.4178C115.645 45.7165 110.557 50.888 104.28 50.9844H90.5214C88.6798 50.9844 87.1927 49.4817 87.1927 47.6475C87.1927 45.8078 88.6798 44.3233 90.5214 44.3233H104.11C106.77 44.3021 108.957 42.1143 108.957 39.4178C108.957 36.7223 106.77 34.5294 104.076 34.5294H98.0211H97.5059C91.1359 34.5294 85.9364 29.3634 85.9364 22.9769C85.9364 16.5748 91.1359 11.3912 97.5059 11.3912H111.094C112.936 11.3912 114.442 12.8933 114.442 14.7522C114.442 16.5748 112.936 18.0855 111.094 18.0855H97.5059C94.8114 18.0855 92.624 20.2774 92.624 22.9769C92.624 25.6396 94.7933 27.832 97.4515 27.8648H97.5755C97.6012 27.8648 97.6819 27.8648 97.7857 27.8537H104.076C105.694 27.8537 107.282 28.1731 108.751 28.8427C112.936 30.7021 115.645 34.8493 115.645 39.4178Z" fill="black"/>
<path fill-rule="evenodd" clip-rule="evenodd" d="M246 39.4178C246 45.7205 240.897 50.896 234.629 51H220.888C219.048 51 217.551 49.4817 217.551 47.6475C217.551 45.8078 219.048 44.3233 220.888 44.3233H234.471C237.132 44.3021 239.31 42.1143 239.31 39.4178C239.31 36.7223 237.119 34.5294 234.437 34.5294H228.378C228.211 34.5506 228.046 34.5506 227.87 34.5506C221.491 34.5506 216.299 29.3801 216.299 22.9769C216.299 16.5748 221.491 11.3912 227.87 11.3912H241.437C243.274 11.3912 244.787 12.909 244.787 14.7522C244.787 16.5748 243.274 18.0936 241.437 18.0936H227.87C225.17 18.0936 222.971 20.2774 222.971 22.9769C222.971 25.6396 225.144 27.832 227.804 27.8648H227.933C227.954 27.8648 228.046 27.8648 228.128 27.8537H234.437C236.058 27.8537 237.638 28.1731 239.106 28.8427C243.295 30.7021 246 34.8493 246 39.4178Z" fill="black"/>
</svg>
